<svg xmlns="http://www.w3.org/2000/svg" width="20" height="21"
                                                            viewBox="0 0 20 21" fill="none">
                                                            <path
                                                                d="M9.401 16.661L16.797 9.26503C15.5526 8.7455 14.4226 7.98645 13.471 7.03103C12.5151 6.07924 11.7557 4.9488 11.236 3.70403L3.84 11.1C3.263 11.677 2.974 11.966 2.726 12.284C2.4331 12.6593 2.18196 13.0654 1.977 13.495C1.804 13.859 1.675 14.247 1.417 15.021L0.0549955 19.104C-0.00769076 19.291 -0.0169912 19.4917 0.0281393 19.6836C0.0732699 19.8756 0.171042 20.0511 0.310467 20.1906C0.449892 20.33 0.625441 20.4278 0.817383 20.4729C1.00932 20.518 1.21005 20.5087 1.397 20.446L5.48 19.084C6.255 18.826 6.642 18.697 7.006 18.524C7.436 18.319 7.842 18.068 8.217 17.775C8.535 17.527 8.824 17.238 9.401 16.661ZM18.849 7.21303C19.5864 6.47559 20.0007 5.47542 20.0007 4.43253C20.0007 3.38964 19.5864 2.38946 18.849 1.65203C18.1116 0.914591 17.1114 0.500305 16.0685 0.500305C15.0256 0.500305 14.0254 0.914591 13.288 1.65203L12.401 2.53903L12.439 2.65003C12.8761 3.90074 13.5914 5.03593 14.531 5.97003C15.493 6.93773 16.668 7.66713 17.962 8.10003L18.849 7.21303Z"
                                                                fill="#E5C165" />
                                                        </svg>