<svg width="17" height="21" viewBox="0 0 17 21" fill="none" xmlns="http://www.w3.org/2000/svg">
<rect x="7" y="1" width="7" height="10" fill="white"/>
<path d="M2.1 21C1.5225 21 1.02795 20.7942 0.616352 20.3826C0.204752 19.971 -0.000698217 19.4768 1.78268e-06 18.9V2.1C1.78268e-06 1.5225 0.205802 1.02795 0.617401 0.616352C1.029 0.204752 1.5232 -0.000698217 2.1 1.78268e-06H14.7C15.2775 1.78268e-06 15.772 0.205802 16.1836 0.617402C16.5952 1.029 16.8007 1.5232 16.8 2.1V18.9C16.8 19.4775 16.5942 19.972 16.1826 20.3836C15.771 20.7952 15.2768 21.0007 14.7 21H2.1ZM7.35 9.45L9.975 7.875L12.6 9.45V2.1H7.35V9.45Z" fill="#999999"/>
</svg>
