<svg width="21" height="17" viewBox="0 0 21 17" fill="none" xmlns="http://www.w3.org/2000/svg">
<path d="M15.2249 3.67478C15.2249 3.53554 15.1696 3.40201 15.0711 3.30355C14.9727 3.20509 14.8391 3.14978 14.6999 3.14978C14.5606 3.14978 14.4271 3.20509 14.3286 3.30355C14.2302 3.40201 14.1749 3.53554 14.1749 3.67478V5.11013C13.694 5.28338 13.1931 5.52173 12.6114 5.83883C12.5491 5.87077 12.4937 5.91486 12.4487 5.96852C12.4037 6.02217 12.3698 6.0843 12.3491 6.15123C12.3285 6.21817 12.3214 6.28857 12.3284 6.35828C12.3353 6.42798 12.3562 6.49559 12.3897 6.55712C12.4232 6.61865 12.4687 6.67285 12.5234 6.71653C12.5782 6.76021 12.6412 6.79249 12.7086 6.81147C12.776 6.83044 12.8466 6.83573 12.9161 6.82701C12.9856 6.8183 13.0527 6.79576 13.1133 6.76073C13.4586 6.56947 13.8128 6.39497 14.1749 6.23783V7.87478C14.1749 8.01402 14.2302 8.14755 14.3286 8.24601C14.4271 8.34447 14.5606 8.39978 14.6999 8.39978C14.8391 8.39978 14.9727 8.34447 15.0711 8.24601C15.1696 8.14755 15.2249 8.01402 15.2249 7.87478V5.89816C15.689 5.79998 16.173 5.76743 16.7925 5.77635C16.9318 5.7783 17.0661 5.72486 17.1659 5.62778C17.2657 5.53071 17.3229 5.39794 17.3249 5.25871C17.3268 5.11947 17.2734 4.98516 17.1763 4.88532C17.0792 4.78549 16.9465 4.7283 16.8072 4.72636C16.2255 4.71796 15.72 4.74315 15.2249 4.82925V3.67478ZM7.94943 10.9901C6.3235 10.367 5.47353 10.2226 3.94263 10.2373L3.93213 9.18728C5.60163 9.17153 6.58233 9.34163 8.32533 10.0094L7.94943 10.9901ZM3.94263 7.61228C5.47353 7.59758 6.3235 7.74195 7.94943 8.36513L8.32533 7.38443C6.58233 6.71663 5.60163 6.546 3.93213 6.56228L3.94263 7.61228ZM7.94943 5.74013C6.3235 5.11695 5.47353 4.97258 3.94263 4.98728L3.93213 3.93728C5.60163 3.92153 6.58233 4.09163 8.32533 4.75943L7.94943 5.74013Z" fill="#999999"/>
<path fill-rule="evenodd" clip-rule="evenodd" d="M10.5 1.70075L10.6355 1.67187C13.2583 0.408723 15.5185 -0.499527 18.6511 0.302672C18.8735 0.36051 19.0702 0.490721 19.2103 0.672765C19.3505 0.854809 19.426 1.07832 19.425 1.30805V1.45557C19.803 1.5317 20.1946 1.61832 20.6026 1.71702C20.7161 1.7446 20.817 1.80957 20.8891 1.90147C20.9612 1.99337 21.0002 2.10685 21 2.22365V15.6316C21 15.9639 20.6939 16.2117 20.3679 16.1498C17.1061 15.5277 14.9079 15.4841 11.9038 15.9398C11.7721 16.1989 11.5712 16.4164 11.3234 16.5684C11.0756 16.7203 10.7907 16.8008 10.5 16.8008C10.2093 16.8008 9.92435 16.7203 9.67658 16.5684C9.42881 16.4164 9.22792 16.1989 9.09615 15.9398C6.09263 15.4841 3.8934 15.5277 0.632102 16.1498C0.555485 16.1647 0.476525 16.1625 0.400846 16.1434C0.325168 16.1243 0.254635 16.0887 0.194273 16.0393C0.133911 15.9898 0.0852045 15.9276 0.0516251 15.8571C0.0180457 15.7867 0.000419328 15.7097 2.0927e-06 15.6316V2.22365C-0.000329298 2.10682 0.0387063 1.9933 0.110811 1.90138C0.182916 1.80946 0.283885 1.74452 0.397427 1.71702C0.78824 1.62233 1.18084 1.53517 1.575 1.45557V1.30805C1.575 0.846047 1.88108 0.422372 2.34885 0.302672C5.48153 -0.499527 7.74165 0.408723 10.3646 1.67187L10.5 1.70075ZM11.025 2.64942C13.6395 1.38732 15.6103 0.612423 18.375 1.31592V13.1536C18.375 13.1536 18.3734 13.1562 18.3708 13.1578C18.367 13.1609 18.3626 13.1631 18.3579 13.1642C18.3532 13.1654 18.3483 13.1655 18.3435 13.1646C15.771 12.6932 13.786 13.1841 11.6261 14.1233C11.4577 13.9511 11.2521 13.8198 11.025 13.7395V2.64942ZM9.975 2.64995V13.7395C9.74793 13.8198 9.54228 13.9511 9.37388 14.1233C7.21403 13.1835 5.22848 12.6932 2.6565 13.1646C2.65165 13.1656 2.64664 13.1655 2.64183 13.1643C2.63702 13.1632 2.63252 13.1609 2.62868 13.1578H2.62815L2.625 13.1531V1.31592C5.38965 0.612423 7.3605 1.38785 9.975 2.64995ZM19.95 2.64207C19.7715 2.60165 19.5967 2.56332 19.425 2.52762V13.1536C19.425 13.8414 18.7897 14.3139 18.154 14.1978C16.1716 13.834 14.584 14.0965 12.8657 14.7501C15.2665 14.4703 17.2903 14.5391 19.95 15.0058V2.64207ZM8.13435 14.7501C6.41655 14.0965 4.82843 13.834 2.84603 14.1978C2.21078 14.3144 1.575 13.8408 1.575 13.1536V2.52762C1.40333 2.56332 1.2285 2.60112 1.05 2.64207V15.0058C3.70965 14.5391 5.733 14.4703 8.13435 14.7501Z" fill="#999999"/>
</svg>
