<svg width="22" height="22" viewBox="0 0 22 22" fill="none" xmlns="http://www.w3.org/2000/svg">
<path d="M11 1C4.23568 1 1.57946 7.01085 1 8.64532C3.07838 7.05859 5.61784 7.14106 7.52 8.64532C9.59838 7.05859 12.5778 7.14106 14.48 8.64532C16.3827 7.14106 18.9216 7.05859 21 8.64532C20.4205 7.01085 17.7643 1 11 1Z" stroke="#999999" stroke-width="2" stroke-linecap="round" stroke-linejoin="round"/>
<path d="M8.00269 19.1993C8.00269 19.6769 8.16807 20.1349 8.46245 20.4726C8.75683 20.8103 9.1561 21 9.57242 21C9.98873 21 10.388 20.8103 10.6824 20.4726C10.9768 20.1349 11.1421 19.6769 11.1421 19.1993V7.48767" stroke="#999999" stroke-width="2" stroke-linecap="round" stroke-linejoin="round"/>
</svg>
