<svg width="21" height="22" viewBox="0 0 21 22" fill="none" xmlns="http://www.w3.org/2000/svg">
<path d="M9.00791 0.530117L4.89633 7.25012C4.44318 7.97959 4.9737 8.93012 5.83581 8.93012H14.0479C14.91 8.93012 15.4405 7.97959 14.9874 7.25012L10.8869 0.530117C10.7892 0.368347 10.6513 0.234546 10.4867 0.141673C10.3222 0.0487994 10.1364 0 9.94739 0C9.7584 0 9.57262 0.0487994 9.40803 0.141673C9.24344 0.234546 9.10562 0.368347 9.00791 0.530117Z" fill="#999999"/>
<path d="M16.0264 21.088C18.7733 21.088 21.0001 18.8612 21.0001 16.1143C21.0001 13.3674 18.7733 11.1406 16.0264 11.1406C13.2795 11.1406 11.0527 13.3674 11.0527 16.1143C11.0527 18.8612 13.2795 21.088 16.0264 21.088Z" fill="#999999"/>
<path d="M1.10526 20.5353H7.73684C8.34474 20.5353 8.8421 20.038 8.8421 19.4301V12.7985C8.8421 12.1906 8.34474 11.6932 7.73684 11.6932H1.10526C0.497368 11.6932 0 12.1906 0 12.7985V19.4301C0 20.038 0.497368 20.5353 1.10526 20.5353Z" fill="#999999"/>
</svg>
