<svg width="20" height="19" viewBox="0 0 20 19" fill="none" xmlns="http://www.w3.org/2000/svg">
<path d="M8.50098 17.5C8.50098 17.8978 8.65901 18.2794 8.94032 18.5607C9.22162 18.842 9.60315 19 10.001 19C10.3988 19 10.7803 18.842 11.0616 18.5607C11.3429 18.2794 11.501 17.8978 11.501 17.5V11H18.001C18.3988 11 18.7803 10.842 19.0616 10.5607C19.3429 10.2794 19.501 9.89782 19.501 9.5C19.501 9.10218 19.3429 8.72064 19.0616 8.43934C18.7803 8.15804 18.3988 8 18.001 8H11.501V1.5C11.501 1.10218 11.3429 0.720644 11.0616 0.43934C10.7803 0.158035 10.3988 0 10.001 0C9.60315 0 9.22162 0.158035 8.94032 0.43934C8.65901 0.720644 8.50098 1.10218 8.50098 1.5V8H2.00098C1.60315 8 1.22162 8.15804 0.940316 8.43934C0.659012 8.72064 0.500977 9.10218 0.500977 9.5C0.500977 9.89782 0.659012 10.2794 0.940316 10.5607C1.22162 10.842 1.60315 11 2.00098 11H8.50098V17.5Z" fill="white"/>
</svg>
