<svg width="18" height="21" viewBox="0 0 18 21" fill="none" xmlns="http://www.w3.org/2000/svg">
<path fill-rule="evenodd" clip-rule="evenodd" d="M11.281 0.5C11.7007 0.500109 12.1098 0.632286 12.4503 0.877808C12.7907 1.12333 13.0453 1.46975 13.178 1.868L13.721 3.5H17.001C17.2662 3.5 17.5205 3.60536 17.7081 3.79289C17.8956 3.98043 18.001 4.23478 18.001 4.5C18.001 4.76522 17.8956 5.01957 17.7081 5.20711C17.5205 5.39464 17.2662 5.5 17.001 5.5L16.998 5.571L16.131 17.714C16.0769 18.4706 15.7382 19.1786 15.183 19.6956C14.6279 20.2125 13.8975 20.4999 13.139 20.5H4.86298C4.10443 20.4999 3.37408 20.2125 2.81894 19.6956C2.2638 19.1786 1.92509 18.4706 1.87098 17.714L1.00398 5.57C1.00217 5.54671 1.00117 5.52336 1.00098 5.5C0.73576 5.5 0.481406 5.39464 0.29387 5.20711C0.106333 5.01957 0.000976563 4.76522 0.000976562 4.5C0.000976562 4.23478 0.106333 3.98043 0.29387 3.79289C0.481406 3.60536 0.73576 3.5 1.00098 3.5H4.28098L4.82398 1.868C4.95667 1.46959 5.21141 1.12305 5.55208 0.877515C5.89274 0.631978 6.30205 0.499899 6.72198 0.5H11.281ZM6.00098 8.5C5.75604 8.50003 5.51964 8.58996 5.3366 8.75272C5.15357 8.91547 5.03663 9.13975 5.00798 9.383L5.00098 9.5V15.5C5.00126 15.7549 5.09886 16 5.27382 16.1854C5.44879 16.3707 5.68793 16.4822 5.94237 16.4972C6.19681 16.5121 6.44736 16.4293 6.64281 16.2657C6.83826 16.1021 6.96387 15.8701 6.99398 15.617L7.00098 15.5V9.5C7.00098 9.23478 6.89562 8.98043 6.70808 8.79289C6.52055 8.60536 6.26619 8.5 6.00098 8.5ZM12.001 8.5C11.7358 8.5 11.4814 8.60536 11.2939 8.79289C11.1063 8.98043 11.001 9.23478 11.001 9.5V15.5C11.001 15.7652 11.1063 16.0196 11.2939 16.2071C11.4814 16.3946 11.7358 16.5 12.001 16.5C12.2662 16.5 12.5205 16.3946 12.7081 16.2071C12.8956 16.0196 13.001 15.7652 13.001 15.5V9.5C13.001 9.23478 12.8956 8.98043 12.7081 8.79289C12.5205 8.60536 12.2662 8.5 12.001 8.5ZM11.281 2.5H6.72098L6.38798 3.5H11.614L11.281 2.5Z" fill="#E5421B"/>
</svg>
