<svg width="21" height="22" viewBox="0 0 21 22" fill="none" xmlns="http://www.w3.org/2000/svg">
<path d="M10.5 0C11.8924 0 13.2277 0.553483 14.2123 1.53869C15.1969 2.52389 15.75 3.86012 15.75 5.25341C15.75 6.6467 15.1969 7.98293 14.2123 8.96813C13.2277 9.95334 11.8924 10.5068 10.5 10.5068C9.10761 10.5068 7.77225 9.95334 6.78769 8.96813C5.80312 7.98293 5.25 6.6467 5.25 5.25341C5.25 3.86012 5.80312 2.52389 6.78769 1.53869C7.77225 0.553483 9.10761 0 10.5 0ZM10.5 13.1335C16.3012 13.1335 21 15.4844 21 18.3869V21.0136H0V18.3869C0 15.4844 4.69875 13.1335 10.5 13.1335Z" fill="#999999"/>
</svg>
