<svg width="20" height="5" viewBox="0 0 20 5" fill="none" xmlns="http://www.w3.org/2000/svg">
<path fill-rule="evenodd" clip-rule="evenodd" d="M2.5 0C3.16304 0 3.79893 0.263392 4.26777 0.732233C4.73661 1.20107 5 1.83696 5 2.5C5 3.16304 4.73661 3.79893 4.26777 4.26777C3.79893 4.73661 3.16304 5 2.5 5C1.83696 5 1.20107 4.73661 0.732233 4.26777C0.263392 3.79893 0 3.16304 0 2.5C0 1.83696 0.263392 1.20107 0.732233 0.732233C1.20107 0.263392 1.83696 0 2.5 0ZM17.5 0C18.163 0 18.7989 0.263392 19.2678 0.732233C19.7366 1.20107 20 1.83696 20 2.5C20 3.16304 19.7366 3.79893 19.2678 4.26777C18.7989 4.73661 18.163 5 17.5 5C16.837 5 16.2011 4.73661 15.7322 4.26777C15.2634 3.79893 15 3.16304 15 2.5C15 1.83696 15.2634 1.20107 15.7322 0.732233C16.2011 0.263392 16.837 0 17.5 0ZM10.226 0C10.889 0 11.5249 0.263392 11.9938 0.732233C12.4626 1.20107 12.726 1.83696 12.726 2.5C12.726 3.16304 12.4626 3.79893 11.9938 4.26777C11.5249 4.73661 10.889 5 10.226 5C9.56296 5 8.92707 4.73661 8.45823 4.26777C7.98939 3.79893 7.726 3.16304 7.726 2.5C7.726 1.83696 7.98939 1.20107 8.45823 0.732233C8.92707 0.263392 9.56296 0 10.226 0Z" fill="#999999"/>
</svg>
