<svg width="19" height="20" viewBox="0 0 19 20" fill="none" xmlns="http://www.w3.org/2000/svg">
<path d="M4.425 6.55001L8.15 0.475009C8.25 0.308342 8.375 0.187342 8.525 0.112009C8.675 0.0366754 8.83334 -0.000657895 9 8.77193e-06C9.16667 8.77193e-06 9.325 0.0376756 9.475 0.113009C9.625 0.188342 9.75 0.309009 9.85 0.475009L13.575 6.55001C13.675 6.71668 13.725 6.89168 13.725 7.07501C13.725 7.25834 13.6833 7.42501 13.6 7.57501C13.5167 7.72501 13.4 7.84601 13.25 7.93801C13.1 8.03001 12.925 8.07568 12.725 8.07501H5.275C5.075 8.07501 4.9 8.02901 4.75 7.93701C4.6 7.84501 4.48334 7.72434 4.4 7.57501C4.31667 7.42501 4.275 7.25834 4.275 7.07501C4.275 6.89168 4.325 6.71668 4.425 6.55001ZM14.5 19.075C13.25 19.075 12.1873 18.6373 11.312 17.762C10.4367 16.8867 9.99934 15.8243 10 14.575C10 13.325 10.4377 12.2623 11.313 11.387C12.1883 10.5117 13.2507 10.0743 14.5 10.075C15.75 10.075 16.8127 10.5127 17.688 11.388C18.5633 12.2633 19.0007 13.3257 19 14.575C19 15.825 18.5623 16.8877 17.687 17.763C16.8117 18.6383 15.7493 19.0757 14.5 19.075ZM3.46021e-06 17.575V11.575C3.46021e-06 11.2917 0.0960036 11.054 0.288004 10.862C0.480004 10.67 0.717337 10.5743 1 10.575H7C7.28334 10.575 7.521 10.671 7.713 10.863C7.905 11.055 8.00067 11.2923 8 11.575V17.575C8 17.8583 7.904 18.096 7.712 18.288C7.52 18.48 7.28267 18.5757 7 18.575H1C0.71667 18.575 0.479003 18.479 0.287003 18.287C0.0950034 18.095 -0.000663206 17.8577 3.46021e-06 17.575Z" fill="white"/>
</svg>
