<svg width="16" height="16" viewBox="0 0 16 16" fill="none" xmlns="http://www.w3.org/2000/svg">
<path d="M15 15.0091L11 11.0065M7 13.0078C6.21207 13.0078 5.43185 12.8525 4.7039 12.5508C3.97595 12.2491 3.31451 11.8068 2.75736 11.2493C2.20021 10.6918 1.75825 10.0299 1.45672 9.30149C1.15519 8.57306 1 7.79234 1 7.0039C1 6.21545 1.15519 5.43473 1.45672 4.70631C1.75825 3.97788 2.20021 3.31601 2.75736 2.7585C3.31451 2.20099 3.97595 1.75874 4.7039 1.45702C5.43185 1.1553 6.21207 1 7 1C8.5913 1 10.1174 1.63255 11.2426 2.7585C12.3679 3.88445 13 5.41157 13 7.0039C13 8.59623 12.3679 10.1233 11.2426 11.2493C10.1174 12.3752 8.5913 13.0078 7 13.0078Z" stroke="#14425D" stroke-width="2"/>
</svg>
