<svg width="19" height="19" viewBox="0 0 19 19" fill="none" xmlns="http://www.w3.org/2000/svg">
<path d="M7.38889 0H1.05556C0.775605 0 0.50712 0.11121 0.309165 0.309165C0.11121 0.50712 0 0.775605 0 1.05556V7.38889C0 7.66884 0.11121 7.93732 0.309165 8.13528C0.50712 8.33323 0.775605 8.44444 1.05556 8.44444H7.38889C7.66884 8.44444 7.93732 8.33323 8.13528 8.13528C8.33323 7.93732 8.44444 7.66884 8.44444 7.38889V1.05556C8.44444 0.775605 8.33323 0.50712 8.13528 0.309165C7.93732 0.11121 7.66884 0 7.38889 0ZM17.9444 0H11.6111C11.3312 0 11.0627 0.11121 10.8647 0.309165C10.6668 0.50712 10.5556 0.775605 10.5556 1.05556V7.38889C10.5556 7.66884 10.6668 7.93732 10.8647 8.13528C11.0627 8.33323 11.3312 8.44444 11.6111 8.44444H17.9444C18.2244 8.44444 18.4929 8.33323 18.6908 8.13528C18.8888 7.93732 19 7.66884 19 7.38889V1.05556C19 0.775605 18.8888 0.50712 18.6908 0.309165C18.4929 0.11121 18.2244 0 17.9444 0ZM7.38889 10.5556H1.05556C0.775605 10.5556 0.50712 10.6668 0.309165 10.8647C0.11121 11.0627 0 11.3312 0 11.6111V17.9444C0 18.2244 0.11121 18.4929 0.309165 18.6908C0.50712 18.8888 0.775605 19 1.05556 19H7.38889C7.66884 19 7.93732 18.8888 8.13528 18.6908C8.33323 18.4929 8.44444 18.2244 8.44444 17.9444V11.6111C8.44444 11.3312 8.33323 11.0627 8.13528 10.8647C7.93732 10.6668 7.66884 10.5556 7.38889 10.5556ZM14.7778 10.5556C15.6039 10.5556 16.4118 10.7979 17.1015 11.2525C17.7912 11.7072 18.3324 12.3542 18.6581 13.1134C18.9837 13.8725 19.0795 14.7106 18.9336 15.5237C18.7877 16.3368 18.4064 17.0892 17.8371 17.6877C17.2677 18.2863 16.5353 18.7047 15.7305 18.8911C14.9257 19.0775 14.084 19.0237 13.3094 18.7365C12.5349 18.4492 11.8617 17.941 11.3731 17.2749C10.8846 16.6088 10.6021 15.8139 10.5608 14.9889L10.5556 14.7778L10.5608 14.5667C10.615 13.4848 11.0829 12.4651 11.8678 11.7185C12.6527 10.9719 13.6945 10.5556 14.7778 10.5556Z" fill="white"/>
</svg>
