<svg width="20" height="19" viewBox="0 0 20 19" fill="none" xmlns="http://www.w3.org/2000/svg">
<path fill-rule="evenodd" clip-rule="evenodd" d="M2.36184 9.20184C2.36184 13.6728 5.54051 16.719 9.11093 17.3491C9.20805 17.3663 9.30091 17.4028 9.3842 17.4565C9.46749 17.5103 9.53957 17.5803 9.59635 17.6624C9.65312 17.7446 9.69347 17.8374 9.71508 17.9355C9.7367 18.0335 9.73916 18.135 9.72233 18.234C9.70549 18.3331 9.66969 18.4278 9.61697 18.5127C9.56426 18.5976 9.49565 18.6712 9.41507 18.7291C9.33449 18.787 9.24352 18.8281 9.14735 18.8501C9.05117 18.8722 8.95169 18.8747 8.85456 18.8575C4.66195 18.1173 0.861084 14.5129 0.861084 9.20184C0.861084 6.94434 1.86783 5.17007 3.04309 3.82174C3.88564 2.85529 4.84918 2.0695 5.62405 1.46877H3.26777C3.07678 1.46877 2.89361 1.3914 2.75856 1.25367C2.62351 1.11595 2.54764 0.929156 2.54764 0.734385C2.54764 0.539614 2.62351 0.35282 2.75856 0.215096C2.89361 0.0773726 3.07678 0 3.26777 0H7.58857C7.77956 0 7.96273 0.0773726 8.09778 0.215096C8.23283 0.35282 8.3087 0.539614 8.3087 0.734385V5.14069C8.3087 5.33546 8.23283 5.52226 8.09778 5.65998C7.96273 5.7977 7.77956 5.87508 7.58857 5.87508C7.39758 5.87508 7.21441 5.7977 7.07936 5.65998C6.94431 5.52226 6.86844 5.33546 6.86844 5.14069V2.42934L6.867 2.43228C6.04316 3.06385 5.03786 3.83789 4.1665 4.83813C3.13671 6.01902 2.36184 7.44813 2.36184 9.20184ZM18.3603 9.79816C18.3603 5.37423 15.2493 2.34709 11.725 1.67146C11.6268 1.65446 11.5329 1.61769 11.4487 1.56328C11.3646 1.50887 11.2919 1.43792 11.2349 1.35456C11.178 1.27121 11.1378 1.17712 11.1169 1.07778C11.096 0.978447 11.0947 0.875854 11.113 0.775991C11.1314 0.676127 11.1691 0.580992 11.2239 0.496137C11.2786 0.411281 11.3495 0.338403 11.4322 0.281756C11.5149 0.225108 11.6078 0.185825 11.7056 0.166198C11.8033 0.146571 11.904 0.146993 12.0015 0.16744C16.1409 0.960575 19.8611 4.54437 19.8611 9.79816C19.8611 12.0557 18.8543 13.8285 17.6791 15.1783C16.8365 16.1447 15.873 16.9305 15.0981 17.5312H17.4544C17.6454 17.5312 17.8286 17.6086 17.9636 17.7463C18.0987 17.884 18.1745 18.0708 18.1745 18.2656C18.1745 18.4604 18.0987 18.6472 17.9636 18.7849C17.8286 18.9226 17.6454 19 17.4544 19H13.1336C12.9426 19 12.7594 18.9226 12.6244 18.7849C12.4893 18.6472 12.4135 18.4604 12.4135 18.2656V13.8593C12.4135 13.6645 12.4893 13.4777 12.6244 13.34C12.7594 13.2023 12.9426 13.1249 13.1336 13.1249C13.3246 13.1249 13.5078 13.2023 13.6428 13.34C13.7779 13.4777 13.8537 13.6645 13.8537 13.8593V16.5692H13.8566C14.679 15.9347 15.6857 15.1621 16.5557 14.1604C17.5855 12.981 18.3603 11.5533 18.3603 9.79816Z" fill="white"/>
</svg>
