<svg width="13" height="8" viewBox="0 0 13 8" fill="none" xmlns="http://www.w3.org/2000/svg">
<path fill-rule="evenodd" clip-rule="evenodd" d="M7.20232 7.69458C7.01922 7.89014 6.77091 8 6.512 8C6.25309 8 6.00478 7.89014 5.82167 7.69458L0.298088 1.79348C0.204831 1.69725 0.130445 1.58214 0.0792721 1.45487C0.0280992 1.32761 0.00116347 1.19072 3.68659e-05 1.05222C-0.00108974 0.913706 0.0236155 0.776345 0.0727106 0.648146C0.121806 0.519946 0.194308 0.403476 0.285986 0.305532C0.377664 0.207587 0.486683 0.13013 0.60668 0.0776796C0.726678 0.0252291 0.855253 -0.00116422 0.9849 3.93863e-05C1.11455 0.00124299 1.24267 0.0300196 1.3618 0.0846901C1.48093 0.139361 1.58867 0.21883 1.67874 0.318461L6.512 5.48206L11.3453 0.318461C11.5294 0.128443 11.7761 0.0232993 12.0321 0.0256761C12.2881 0.0280528 12.533 0.13776 12.714 0.331168C12.895 0.524577 12.9977 0.786212 13 1.05972C13.0022 1.33323 12.9038 1.59674 12.7259 1.79348L7.20232 7.69458Z" fill="white"/>
</svg>
