<svg width="21" height="21" viewBox="0 0 21 21" fill="none" xmlns="http://www.w3.org/2000/svg">
<path d="M21 6.5625C21 5.84062 20.4094 5.25 19.6875 5.25H15.75V1.3125C15.75 0.590625 15.1594 0 14.4375 0C13.7156 0 13.125 0.590625 13.125 1.3125V5.25H7.875V1.3125C7.875 0.590625 7.28438 0 6.5625 0C5.84062 0 5.25 0.590625 5.25 1.3125V5.25H1.3125C0.590625 5.25 0 5.84062 0 6.5625C0 7.28438 0.590625 7.875 1.3125 7.875H5.25V13.125H1.3125C0.590625 13.125 0 13.7156 0 14.4375C0 15.1594 0.590625 15.75 1.3125 15.75H5.25V19.6875C5.25 20.4094 5.84062 21 6.5625 21C7.28438 21 7.875 20.4094 7.875 19.6875V15.75H13.125V19.6875C13.125 20.4094 13.7156 21 14.4375 21C15.1594 21 15.75 20.4094 15.75 19.6875V15.75H19.6875C20.4094 15.75 21 15.1594 21 14.4375C21 13.7156 20.4094 13.125 19.6875 13.125H15.75V7.875H19.6875C20.4094 7.875 21 7.28438 21 6.5625ZM13.125 13.125H7.875V7.875H13.125V13.125Z" fill="#999999"/>
</svg>
