<svg width="21" height="22" viewBox="0 0 21 22" fill="none" xmlns="http://www.w3.org/2000/svg">
<path d="M1.16667 11.6742H8.16667C8.80833 11.6742 9.33333 11.1489 9.33333 10.5068V1.16742C9.33333 0.525341 8.80833 0 8.16667 0H1.16667C0.525 0 0 0.525341 0 1.16742V10.5068C0 11.1489 0.525 11.6742 1.16667 11.6742ZM1.16667 21.0136H8.16667C8.80833 21.0136 9.33333 20.4883 9.33333 19.8462V15.1765C9.33333 14.5344 8.80833 14.0091 8.16667 14.0091H1.16667C0.525 14.0091 0 14.5344 0 15.1765V19.8462C0 20.4883 0.525 21.0136 1.16667 21.0136ZM12.8333 21.0136H19.8333C20.475 21.0136 21 20.4883 21 19.8462V10.5068C21 9.86474 20.475 9.3394 19.8333 9.3394H12.8333C12.1917 9.3394 11.6667 9.86474 11.6667 10.5068V19.8462C11.6667 20.4883 12.1917 21.0136 12.8333 21.0136ZM11.6667 1.16742V5.83712C11.6667 6.47921 12.1917 7.00455 12.8333 7.00455H19.8333C20.475 7.00455 21 6.47921 21 5.83712V1.16742C21 0.525341 20.475 0 19.8333 0H12.8333C12.1917 0 11.6667 0.525341 11.6667 1.16742Z" fill="#2196F3"/>
</svg>
